{
    "asset" : {
        "copyright" : "Copyright 2020 Omabuarts Studio. For more info, visit https://omabuarts.com/license",
        "generator" : "Khronos glTF Blender I/O v1.1.46",
        "version" : "2.0"
    },
    "scene" : 0,
    "scenes" : [
        {
            "name" : "Scene",
            "nodes" : [
                13
            ]
        }
    ],
    "nodes" : [
        {
            "name" : "ear.L",
            "rotation" : [
                -0.09934576600790024,
                -0.41713887453079224,
                -0.25174158811569214,
                0.8676127195358276
            ],
            "scale" : [
                0.9999998807907104,
                0.9999998807907104,
                0.9999997019767761
            ],
            "translation" : [
                0.3386659622192383,
                1.1207610368728638,
                0.8126835227012634
            ]
        },
        {
            "name" : "ear.R",
            "rotation" : [
                -0.09934576600790024,
                0.41713887453079224,
                0.25174158811569214,
                0.8676127195358276
            ],
            "scale" : [
                0.9999998807907104,
                0.9999998807907104,
                0.9999997019767761
            ],
            "translation" : [
                -0.3386659622192383,
                1.1207610368728638,
                0.8126835227012634
            ]
        },
        {
            "name" : "tail.01",
            "rotation" : [
                -0.4291970431804657,
                -3.37839535704675e-15,
                -9.47764815847213e-15,
                0.9032108783721924
            ],
            "scale" : [
                1,
                0.9999995827674866,
                0.9999986290931702
            ],
            "translation" : [
                1.015605802175178e-14,
                0.8975472450256348,
                -1.1757354736328125
            ]
        },
        {
            "children" : [
                0,
                1,
                2
            ],
            "name" : "body",
            "rotation" : [
                5.3385097231739564e-08,
                0.7071068286895752,
                -0.7071068286895752,
                5.338508657359853e-08
            ],
            "translation" : [
                8.652290972577248e-08,
                0.003225162625312805,
                -0.5730153322219849
            ]
        },
        {
            "name" : "leg.F.L",
            "rotation" : [
                0.38282111287117004,
                -0.6000857353210449,
                -0.6109916567802429,
                0.3464597463607788
            ],
            "translation" : [
                -0.36716049909591675,
                -0.5569701194763184,
                -1.2769187688827515
            ]
        },
        {
            "name" : "leg.F.R",
            "rotation" : [
                0.3828209936618805,
                0.6000857353210449,
                0.6109917163848877,
                0.3464598059654236
            ],
            "translation" : [
                0.3671608567237854,
                -0.5569701194763184,
                -1.2769187688827515
            ]
        },
        {
            "name" : "leg.B.L",
            "rotation" : [
                0.30287864804267883,
                -0.6889416575431824,
                -0.5247955918312073,
                0.39776062965393066
            ],
            "scale" : [
                1.0000001192092896,
                1.0000001192092896,
                1.0000001192092896
            ],
            "translation" : [
                -0.6667910814285278,
                0.6620673537254333,
                -0.9432357549667358
            ]
        },
        {
            "name" : "leg.B.R",
            "rotation" : [
                0.3028786778450012,
                0.6889415979385376,
                0.524795651435852,
                0.3977607786655426
            ],
            "scale" : [
                1.0000001192092896,
                1.0000001192092896,
                1.0000001192092896
            ],
            "translation" : [
                0.6667913198471069,
                0.6620673537254333,
                -0.9432355165481567
            ]
        },
        {
            "children" : [
                3,
                4,
                5,
                6,
                7
            ],
            "name" : "root",
            "rotation" : [
                -5.338508657359853e-08,
                -0.7071068286895752,
                0.7071068286895752,
                5.338508657359853e-08
            ]
        },
        {
            "mesh" : 0,
            "name" : "Bear_LOD0",
            "skin" : 0
        },
        {
            "mesh" : 1,
            "name" : "Bear_LOD1",
            "skin" : 0
        },
        {
            "mesh" : 2,
            "name" : "Bear_LOD2",
            "skin" : 0
        },
        {
            "mesh" : 3,
            "name" : "Bear_LOD3",
            "skin" : 0
        },
        {
            "children" : [
                9,
                10,
                11,
                12,
                8
            ],
            "name" : "Rig"
        }
    ],
    "materials" : [
        {
            "doubleSided" : true,
            "emissiveFactor" : [
                0,
                0,
                0
            ],
            "name" : "Mat_Bear",
            "pbrMetallicRoughness" : {
                "baseColorTexture" : {
                    "index" : 0,
                    "texCoord" : 0
                },
                "metallicFactor" : 0,
                "roughnessFactor" : 0.5
            }
        }
    ],
    "meshes" : [
        {
            "name" : "Bear_LOD0",
            "primitives" : [
                {
                    "attributes" : {
                        "POSITION" : 0,
                        "NORMAL" : 1,
                        "TEXCOORD_0" : 2,
                        "JOINTS_0" : 3,
                        "WEIGHTS_0" : 4
                    },
                    "indices" : 5,
                    "material" : 0
                }
            ]
        },
        {
            "name" : "Bear_LOD1",
            "primitives" : [
                {
                    "attributes" : {
                        "POSITION" : 7,
                        "NORMAL" : 8,
                        "TEXCOORD_0" : 9,
                        "JOINTS_0" : 10,
                        "WEIGHTS_0" : 11
                    },
                    "indices" : 12,
                    "material" : 0
                }
            ]
        },
        {
            "name" : "Bear_LOD2",
            "primitives" : [
                {
                    "attributes" : {
                        "POSITION" : 13,
                        "NORMAL" : 14,
                        "TEXCOORD_0" : 15,
                        "JOINTS_0" : 16,
                        "WEIGHTS_0" : 17
                    },
                    "indices" : 18,
                    "material" : 0
                }
            ]
        },
        {
            "name" : "Bear_LOD3",
            "primitives" : [
                {
                    "attributes" : {
                        "POSITION" : 19,
                        "NORMAL" : 20,
                        "TEXCOORD_0" : 21,
                        "JOINTS_0" : 22,
                        "WEIGHTS_0" : 23
                    },
                    "indices" : 24,
                    "material" : 0
                }
            ]
        }
    ],
    "textures" : [
        {
            "source" : 0
        }
    ],
    "images" : [
        {
            "bufferView" : 6,
            "mimeType" : "image/png",
            "name" : "Tex_Bear"
        }
    ],
    "skins" : [
        {
            "inverseBindMatrices" : 6,
            "joints" : [
                8,
                3,
                0,
                1,
                2,
                4,
                5,
                6,
                7
            ],
            "name" : "Rig"
        }
    ],
    "accessors" : [
        {
            "bufferView" : 0,
            "componentType" : 5126,
            "count" : 2752,
            "max" : [
                0.8867489099502563,
                2.0338058471679688,
                1.740743637084961
            ],
            "min" : [
                -0.8867489099502563,
                0,
                -1.469351887702942
            ],
            "type" : "VEC3"
        },
        {
            "bufferView" : 1,
            "componentType" : 5126,
            "count" : 2752,
            "type" : "VEC3"
        },
        {
            "bufferView" : 2,
            "componentType" : 5126,
            "count" : 2752,
            "type" : "VEC2"
        },
        {
            "bufferView" : 3,
            "componentType" : 5123,
            "count" : 2752,
            "type" : "VEC4"
        },
        {
            "bufferView" : 4,
            "componentType" : 5126,
            "count" : 2752,
            "type" : "VEC4"
        },
        {
            "bufferView" : 5,
            "componentType" : 5123,
            "count" : 14169,
            "type" : "SCALAR"
        },
        {
            "bufferView" : 7,
            "componentType" : 5126,
            "count" : 9,
            "type" : "MAT4"
        },
        {
            "bufferView" : 8,
            "componentType" : 5126,
            "count" : 1120,
            "max" : [
                0.8867489099502563,
                2.0338058471679688,
                1.740743637084961
            ],
            "min" : [
                -0.8867489099502563,
                0,
                -1.469352126121521
            ],
            "type" : "VEC3"
        },
        {
            "bufferView" : 9,
            "componentType" : 5126,
            "count" : 1120,
            "type" : "VEC3"
        },
        {
            "bufferView" : 10,
            "componentType" : 5126,
            "count" : 1120,
            "type" : "VEC2"
        },
        {
            "bufferView" : 11,
            "componentType" : 5123,
            "count" : 1120,
            "type" : "VEC4"
        },
        {
            "bufferView" : 12,
            "componentType" : 5126,
            "count" : 1120,
            "type" : "VEC4"
        },
        {
            "bufferView" : 13,
            "componentType" : 5123,
            "count" : 5490,
            "type" : "SCALAR"
        },
        {
            "bufferView" : 14,
            "componentType" : 5126,
            "count" : 534,
            "max" : [
                0.8867489099502563,
                2.02903151512146,
                1.740743637084961
            ],
            "min" : [
                -0.8867489099502563,
                0.000936402939260006,
                -1.469352126121521
            ],
            "type" : "VEC3"
        },
        {
            "bufferView" : 15,
            "componentType" : 5126,
            "count" : 534,
            "type" : "VEC3"
        },
        {
            "bufferView" : 16,
            "componentType" : 5126,
            "count" : 534,
            "type" : "VEC2"
        },
        {
            "bufferView" : 17,
            "componentType" : 5123,
            "count" : 534,
            "type" : "VEC4"
        },
        {
            "bufferView" : 18,
            "componentType" : 5126,
            "count" : 534,
            "type" : "VEC4"
        },
        {
            "bufferView" : 19,
            "componentType" : 5123,
            "count" : 2646,
            "type" : "SCALAR"
        },
        {
            "bufferView" : 20,
            "componentType" : 5126,
            "count" : 282,
            "max" : [
                0.8867489099502563,
                2.0015978813171387,
                1.740743637084961
            ],
            "min" : [
                -0.8867489099502563,
                0.00093982950784266,
                -1.469352126121521
            ],
            "type" : "VEC3"
        },
        {
            "bufferView" : 21,
            "componentType" : 5126,
            "count" : 282,
            "type" : "VEC3"
        },
        {
            "bufferView" : 22,
            "componentType" : 5126,
            "count" : 282,
            "type" : "VEC2"
        },
        {
            "bufferView" : 23,
            "componentType" : 5123,
            "count" : 282,
            "type" : "VEC4"
        },
        {
            "bufferView" : 24,
            "componentType" : 5126,
            "count" : 282,
            "type" : "VEC4"
        },
        {
            "bufferView" : 25,
            "componentType" : 5123,
            "count" : 1338,
            "type" : "SCALAR"
        }
    ],
    "bufferViews" : [
        {
            "buffer" : 0,
            "byteLength" : 33024,
            "byteOffset" : 0
        },
        {
            "buffer" : 0,
            "byteLength" : 33024,
            "byteOffset" : 33024
        },
        {
            "buffer" : 0,
            "byteLength" : 22016,
            "byteOffset" : 66048
        },
        {
            "buffer" : 0,
            "byteLength" : 22016,
            "byteOffset" : 88064
        },
        {
            "buffer" : 0,
            "byteLength" : 44032,
            "byteOffset" : 110080
        },
        {
            "buffer" : 0,
            "byteLength" : 28338,
            "byteOffset" : 154112
        },
        {
            "buffer" : 0,
            "byteLength" : 131,
            "byteOffset" : 182452
        },
        {
            "buffer" : 0,
            "byteLength" : 576,
            "byteOffset" : 182584
        },
        {
            "buffer" : 0,
            "byteLength" : 13440,
            "byteOffset" : 183160
        },
        {
            "buffer" : 0,
            "byteLength" : 13440,
            "byteOffset" : 196600
        },
        {
            "buffer" : 0,
            "byteLength" : 8960,
            "byteOffset" : 210040
        },
        {
            "buffer" : 0,
            "byteLength" : 8960,
            "byteOffset" : 219000
        },
        {
            "buffer" : 0,
            "byteLength" : 17920,
            "byteOffset" : 227960
        },
        {
            "buffer" : 0,
            "byteLength" : 10980,
            "byteOffset" : 245880
        },
        {
            "buffer" : 0,
            "byteLength" : 6408,
            "byteOffset" : 256860
        },
        {
            "buffer" : 0,
            "byteLength" : 6408,
            "byteOffset" : 263268
        },
        {
            "buffer" : 0,
            "byteLength" : 4272,
            "byteOffset" : 269676
        },
        {
            "buffer" : 0,
            "byteLength" : 4272,
            "byteOffset" : 273948
        },
        {
            "buffer" : 0,
            "byteLength" : 8544,
            "byteOffset" : 278220
        },
        {
            "buffer" : 0,
            "byteLength" : 5292,
            "byteOffset" : 286764
        },
        {
            "buffer" : 0,
            "byteLength" : 3384,
            "byteOffset" : 292056
        },
        {
            "buffer" : 0,
            "byteLength" : 3384,
            "byteOffset" : 295440
        },
        {
            "buffer" : 0,
            "byteLength" : 2256,
            "byteOffset" : 298824
        },
        {
            "buffer" : 0,
            "byteLength" : 2256,
            "byteOffset" : 301080
        },
        {
            "buffer" : 0,
            "byteLength" : 4512,
            "byteOffset" : 303336
        },
        {
            "buffer" : 0,
            "byteLength" : 2676,
            "byteOffset" : 307848
        }
    ],
    "buffers" : [
        {
            "byteLength" : 310524,
            "uri" : "data:application/octet-stream;base64,"
        }
    ]
}
